<svg xmlns="http://www.w3.org/2000/svg" width="160" height="160" viewBox="0 0 160 160" fill="none">
  <rect width="160" height="160" rx="32" fill="#63A9D9"/>
  <path d="M72 124c-18 0-32-14-32-32 0-3 .3-5.9 1-8.6C37 73.4 51.2 60 68.2 60H92c8.8 0 16 7.2 16 16v22c0 14.4-12.4 26-28 26h-8Z" fill="#fff"/>
  <path d="M96 94c0 11-9 20-20 20s-20-9-20-20 9-20 20-20 20 9 20 20Z" fill="#63A9D9"/>
  <circle cx="72" cy="94" r="6" fill="#fff"/>
  <circle cx="92" cy="94" r="6" fill="#fff"/>
  <rect x="78" y="104" width="8" height="4" rx="2" fill="#fff"/>
  <path d="M66 72c0-11 9-20 20-20 7 0 13.3 3.6 17 9.1" stroke="#fff" stroke-width="8" stroke-linecap="round"/>
</svg>
